<?xml version="1.0"?>
<svg width="150" height="34" xmlns="http://www.w3.org/2000/svg">
    <g class="layer">
        <title>Layer 1</title>
        <path clip-rule="evenodd"
              d="m37.51,15.9l0.49,-1.58l-1.63,0.05c-0.14,0 -1.14,-0.03 -2.11,-0.73c0.07,0 0.14,0.02 0.22,0.02c1,0 1.97,-0.61 2.35,-1.47l0.71,-1.56c-0.88,0.01 -1.69,-0.1 -1.69,-0.1c-0.01,0 -0.64,-0.08 -1.37,-0.84c-0.53,-0.53 -1.18,-0.82 -1.89,-0.82a2.71,2.71 0 0 0 -0.82,0.13c0.04,-0.12 0.07,-0.25 0.1,-0.38c0.22,-1.46 -0.72,-2.58 -0.72,-2.58l-1.23,-1.52l-0.76,1.79c0,0.01 -0.19,0.43 -0.53,0.63c-0.11,-0.53 -0.36,-1.12 -0.91,-1.68c-1.02,-1.07 -2.27,-1.23 -2.93,-1.23c-0.3,0 -0.52,0.04 -0.57,0.05l-1.48,0.29c0.08,-0.33 0.27,-0.91 0.6,-1.43l0.82,-1.28l-2.06,0.24l-0.65,-1.39l-1.27,0.65l-1.18,-1.16l-1.17,1.16l-1.27,-0.65l-0.65,1.39l-2.06,-0.24l0.82,1.28c0.33,0.52 0.51,1.1 0.6,1.43l-1.41,-0.28l-0.05,-0.01a3.7,3.7 0 0 0 -0.59,-0.04c-0.66,0 -1.91,0.16 -2.93,1.22c-0.54,0.56 -0.8,1.16 -0.9,1.68c-0.35,-0.2 -0.54,-0.61 -0.54,-0.61l-0.76,-1.8l-1.25,1.53c-0.15,0.2 -0.9,1.24 -0.7,2.56c0.03,0.13 0.06,0.26 0.1,0.38a2.68,2.68 0 0 0 -0.82,-0.13c-0.71,0 -1.36,0.29 -1.89,0.83c-0.73,0.74 -1.36,0.83 -1.35,0.83c0,0 -0.67,0.12 -1.7,0.1l0.7,1.56c0.38,0.86 1.35,1.47 2.35,1.47c0.08,0 0.15,-0.01 0.22,-0.02c-0.97,0.71 -1.97,0.73 -2.09,0.73l-1.66,-0.05l0.5,1.58c0.26,0.82 1.1,2.17 2.72,2.31c-0.17,0.74 -0.56,1.57 -1.42,1.93l-1.24,0.51l0.67,1.18c0.39,0.63 1.28,1.38 2.55,1.38c0.28,0 0.55,-0.03 0.8,-0.09c0.07,0.29 0.15,0.58 0.25,0.87c0.37,1.13 0.05,1.92 0.04,1.93l-0.61,1.28l1.37,0.36c0.01,0.01 0.43,0.12 0.94,0.12c0.24,0 0.46,-0.02 0.67,-0.07c0.16,-0.04 0.31,-0.09 0.46,-0.15c0.17,0.32 0.39,0.61 0.64,0.87c0.87,0.9 2.11,1.35 3.68,1.35l0.01,0l1.11,-0.01l-2.31,0.96l1.76,0.85c0.64,0.31 1.39,0.68 2.16,0.96l-0.22,0.6l0.61,0.28c0.05,0.03 1.22,0.55 3.15,0.66c0,0 0.47,0.02 0.73,0.02c0.26,0 0.72,-0.02 0.72,-0.02c1.92,-0.12 3.08,-0.63 3.13,-0.66l0.61,-0.28l-0.22,-0.6c0.79,-0.29 1.57,-0.67 2.19,-0.97l1.72,-0.84l-2.31,-0.96l1.13,0.01c1.57,0 2.81,-0.45 3.68,-1.35c0.25,-0.26 0.46,-0.55 0.64,-0.87a2.9,2.9 0 0 0 1.13,0.22c0.51,0 0.92,-0.11 0.93,-0.11l1.37,-0.37l-0.59,-1.26c-0.02,-0.03 -0.34,-0.82 0.03,-1.95c0.1,-0.29 0.18,-0.58 0.25,-0.87c0.25,0.06 0.52,0.09 0.8,0.09c1.62,0 2.4,-1.15 2.55,-1.39l0.67,-1.17l-1.24,-0.51c-0.86,-0.36 -1.25,-1.19 -1.42,-1.93c1.6,-0.14 2.45,-1.49 2.72,-2.31z"
              fill="#FFFFFE" fill-rule="evenodd" id="svg_1"/>
        <path clip-rule="evenodd"
              d="m19,4.84c-1.31,0 -2.29,0.43 -2.5,0.94l2.5,0.99l2.51,-0.99c-0.21,-0.51 -1.19,-0.94 -2.51,-0.94zm0.03,26.24l-0.05,0c-0.79,0.01 -1.89,-0.16 -2.41,-0.31l-0.64,1.72c0.42,0.15 1.84,0.43 3.08,0.43c1.24,0 2.65,-0.28 3.07,-0.43l-0.63,-1.72c-0.53,0.15 -1.63,0.32 -2.42,0.31zm4.8,-1.71c-0.47,0.27 -1.53,0.67 -2.14,0.86l0.51,1.42c0.95,-0.26 1.73,-0.56 2.38,-0.89l-1.07,-0.35l0.32,-1.04zm-9.65,0l0.32,1.04l-1.07,0.35c0.64,0.33 1.43,0.63 2.38,0.89l0.51,-1.42c-0.61,-0.19 -1.67,-0.59 -2.14,-0.86zm4.82,-26.17c0.99,0 1.96,0.24 2.71,0.65c0.06,-0.23 0.16,-0.5 0.29,-0.8l-0.28,0.04l-0.3,0.03l-0.12,-0.27l-0.38,-0.8l-0.69,0.36l-0.27,0.14l-0.21,-0.21l-0.75,-0.74l-0.74,0.74l-0.22,0.21l-0.26,-0.14l-0.69,-0.36l-0.38,0.8l-0.12,0.27l-0.3,-0.03l-0.28,-0.04c0.13,0.3 0.22,0.57 0.29,0.8c0.75,-0.41 1.72,-0.65 2.7,-0.65zm15.09,9.22c0.13,0.04 0.26,0.06 0.39,0.06c0.56,0 1.1,-0.36 1.28,-0.78c0,0 -1.02,-0.06 -2.13,-1.18c-0.35,-0.36 -0.72,-0.47 -1.04,-0.47c-0.49,0 -0.86,0.26 -0.86,0.26c1.33,0.71 1.6,1.85 2.36,2.11zm-30.56,0.06c0.13,0 0.26,-0.02 0.39,-0.06c0.76,-0.26 1.03,-1.4 2.36,-2.11c0,0 -0.37,-0.26 -0.86,-0.26c-0.32,0 -0.69,0.11 -1.05,0.47c-1.1,1.12 -2.12,1.19 -2.12,1.19c0.18,0.41 0.72,0.77 1.28,0.77z"
              fill="#FFFFFE" fill-rule="evenodd" id="svg_2"/>
        <path clip-rule="evenodd"
              d="m33.69,20.59c-1.03,-0.51 -1.68,-1.86 -1.84,-2.34c-0.17,2.68 -1.48,4.53 -3,6.32c-0.79,0.93 -1.07,1.83 -1.07,1.83s0.15,-1.02 0.84,-1.85c1.42,-1.71 2.77,-3.85 2.87,-6.31c0.07,-1.72 -0.37,-3.12 -1.06,-4.27c0.39,1.2 0.33,2.67 -0.98,4.04c0,0 2.61,-3.13 -1.03,-6.34c-1.46,-1.22 -3.06,-1.97 -3.88,-2.51c2.97,0.97 4.42,-0.1 4.42,-0.1c-0.95,0.83 -2.18,0.81 -2.94,0.69c0.21,0.11 0.42,0.21 0.65,0.33c2.51,1.37 4.76,3.61 5.14,6.71l0,-0.02c0.58,3.04 1.88,3.82 1.88,3.82zm0.76,-3.55c0.02,0.01 0.04,0.01 0.07,0.01c1.39,0 1.86,-1.5 1.86,-1.5l-0.03,0c-0.25,0 -2.33,-0.06 -3.79,-1.93c-0.97,-1.22 -1.76,-2.3 -3.32,-2.73l-0.15,-0.03l-0.04,-0.15c-0.04,-0.24 0.12,-0.47 0.5,-0.71c2.15,-1.41 0.69,-3.21 0.69,-3.21s-0.62,1.44 -1.99,1.44l-0.11,0c-0.15,-0.01 -0.3,-0.02 -0.46,-0.05l-0.25,-0.05s0.39,-1.07 -0.56,-2.05c-0.71,-0.74 -1.58,-0.87 -2.08,-0.87c-0.25,0 -0.41,0.03 -0.41,0.03c0.47,0.63 0.82,1.66 0.27,2.3c-0.48,0.55 -1.64,0.57 -1.64,1.39c0,0.35 0.33,0.75 0.91,1.12c1.74,1.1 3.47,2.56 4.19,4.51c0.9,2.44 -0.11,4.06 -1.56,4.99c0,0 0.46,0.42 1.11,0.47c0.14,0.02 0.27,0.02 0.39,0.02c1.39,0 2.11,-0.65 2.11,-0.65s-0.12,0.9 -0.84,1.74c-0.67,0.77 -1.55,1.23 -2.88,1.25c0,0 -0.04,0.62 0.55,1.15c0.38,0.34 1.25,0.45 1.25,0.45s-1.64,0.33 -1.82,2.76c-0.1,1.31 -0.43,1.76 -0.43,1.76l0.03,0c3.8,0 3.7,-3.26 3.7,-3.26s0.26,0.97 1.32,1.22c0.13,0.03 0.27,0.05 0.4,0.05c0.34,0 0.63,-0.08 0.63,-0.08s-0.55,-1.18 0,-2.82c0.46,-1.36 0.38,-2.36 0.38,-2.36s0.51,0.77 1.78,0.78l0.01,0a1.78,1.78 0 0 0 1.52,-0.8c-2.53,-1.06 -2.28,-4.45 -2.28,-4.45s0.33,0.24 0.97,0.27l0,-0.01zm-25.29,7.53c-1.53,-1.78 -2.83,-3.64 -3,-6.32c-0.16,0.49 -0.81,1.84 -1.84,2.35c0,0 1.3,-0.79 1.88,-3.83l0,0.02c0.38,-3.1 2.63,-5.34 5.13,-6.7c0.23,-0.13 0.45,-0.23 0.65,-0.33c-0.76,0.11 -1.98,0.13 -2.93,-0.69c0,0 1.45,1.06 4.42,0.09c-0.82,0.54 -2.42,1.29 -3.88,2.51c-3.64,3.21 -1.04,6.34 -1.04,6.34c-1.31,-1.37 -1.36,-2.84 -0.97,-4.04c-0.69,1.15 -1.13,2.55 -1.06,4.27c0.1,2.47 1.45,4.6 2.87,6.31c0.69,0.83 0.84,1.85 0.84,1.85s-0.28,-0.9 -1.07,-1.83zm0.61,-0.59s0.87,-0.11 1.25,-0.45c0.59,-0.53 0.55,-1.15 0.55,-1.15c-1.34,-0.02 -2.21,-0.48 -2.88,-1.25c-0.72,-0.84 -0.84,-1.74 -0.84,-1.74s0.72,0.65 2.11,0.65c0.12,0 0.25,0 0.38,-0.02a2.05,2.05 0 0 0 1.12,-0.47c-1.45,-0.93 -2.46,-2.55 -1.56,-4.99c0.72,-1.95 2.45,-3.41 4.19,-4.52c0.58,-0.36 0.9,-0.76 0.9,-1.11c0,-0.82 -1.16,-0.84 -1.63,-1.39c-0.55,-0.64 -0.21,-1.67 0.27,-2.3c0,0 -0.16,-0.03 -0.41,-0.03c-0.5,0 -1.37,0.13 -2.09,0.87c-0.95,0.98 -0.55,2.05 -0.55,2.05l-0.26,0.05c-0.15,0.03 -0.3,0.04 -0.46,0.05l-0.1,0c-1.38,0 -1.99,-1.44 -1.99,-1.44s-1.46,1.8 0.69,3.21c0.37,0.24 0.54,0.47 0.49,0.71l-0.03,0.15l-0.16,0.03c-1.56,0.43 -2.35,1.51 -3.31,2.73c-1.47,1.87 -3.54,1.93 -3.8,1.93l-0.02,0s0.47,1.5 1.86,1.5c0.03,0 0.05,0 0.07,0c0.64,-0.03 0.97,-0.27 0.97,-0.27s0.25,3.39 -2.28,4.45c0,0 0.46,0.8 1.52,0.8l0.01,0c1.27,-0.01 1.78,-0.78 1.78,-0.78s-0.08,1.01 0.38,2.37c0.55,1.64 0,2.81 0,2.81s0.29,0.07 0.63,0.07c0.13,0 0.27,-0.01 0.4,-0.04c1.05,-0.25 1.32,-1.22 1.32,-1.22s-0.1,3.26 3.7,3.26l0.03,0s-0.34,-0.45 -0.43,-1.76c-0.18,-2.42 -1.82,-2.76 -1.82,-2.76zm8.38,-12.02l1.79,0l0,0.62c-0.21,-0.26 -0.62,-0.21 -0.62,-0.21l0,0.89s0.01,0.44 0.16,0.62l-0.88,0c0.15,-0.18 0.17,-0.62 0.17,-0.62l0,-0.89s-0.41,-0.05 -0.62,0.21l0,-0.62zm-1.95,0.09c0.06,0.07 0.12,0.15 0.18,0.22c0.01,0.01 0.03,0.03 0.04,0.05c0.05,0.07 0.11,0.15 0.16,0.23l0.04,0.05c0.06,0.1 0.12,0.2 0.18,0.3c0.55,0.95 1.43,1.51 2.2,1.51c0.78,0 1.66,-0.56 2.21,-1.51c0.06,-0.11 0.12,-0.21 0.18,-0.3a4.37,4.37 0 0 1 0.24,-0.33c0.06,-0.08 0.12,-0.15 0.18,-0.22c0.01,-0.01 0.02,-0.02 0.03,-0.03c0.29,-0.28 0.62,-0.5 1.05,-0.62l-0.19,-0.11l-0.01,0l-0.77,-0.45l-0.79,-0.46l-2.12,1.16l-0.01,-0.01l0,0.01l-2.12,-1.16l-0.79,0.46l-0.77,0.45l-0.01,0l-0.19,0.11c0.43,0.12 0.76,0.33 1.04,0.62c0.01,0.01 0.02,0.02 0.04,0.03z"
              fill="#FFFFFE" fill-rule="evenodd" id="svg_3"/>
        <path clip-rule="evenodd"
              d="m18.33,8.05l0,0.58l-0.11,-0.05c-0.01,0 -0.17,-0.04 -0.45,-0.26c-0.47,-0.37 -0.48,-0.7 -0.48,-0.7l1.04,0.43zm0.49,2.72l0,-3.6l-2.29,-0.78l0.61,3.49l1.68,0.89zm0.86,-2.72l1.04,-0.43s-0.01,0.33 -0.48,0.7c-0.28,0.22 -0.45,0.26 -0.45,0.26l-0.11,0.05l0,-0.58zm1.19,1.83l0.6,-3.49l-2.28,0.78l0,3.6l1.68,-0.89zm-5.29,9.24c0.23,0.08 0.5,0.1 0.64,0.1c0,-0.02 0.01,-0.04 0.02,-0.07c0.01,-0.04 0.02,-0.08 0.03,-0.12c0.04,-0.2 0.05,-0.43 0.05,-0.57a0.8,0.8 0 0 1 -0.3,-0.32c-0.08,-0.18 -0.2,-0.27 -0.38,-0.27c-0.23,0 -0.48,0.14 -0.58,0.21c-0.09,0.5 0.28,0.95 0.52,1.04zm5.07,-1.91c-0.43,0.46 -1.26,1.27 -1.3,1.31l-0.05,0.05l-2.63,-0.04a2.73,2.73 0 0 1 -0.08,0.64l-0.03,0.09l3.13,0.56c0.33,-0.23 1.22,-0.88 1.57,-1.14c-0.25,-0.37 -0.28,-0.81 -0.22,-1.12a1.56,1.56 0 0 1 -0.39,-0.35z"
              fill="#FFFFFE" fill-rule="evenodd" id="svg_4"/>
        <path clip-rule="evenodd"
              d="m21,14.04c-0.6,0.6 -1.18,0.83 -1.7,0.88a2.75,2.75 0 0 1 -0.29,0.01l-0.01,0a2.72,2.72 0 0 1 -0.57,-0.06c-0.03,0.14 -0.08,0.42 0.05,0.69c0.11,0.24 0.33,0.42 0.65,0.55l0.11,0.04l0.01,0.12c0,0.03 0.02,0.8 0.86,1.01c0.13,-0.14 0.26,-0.27 0.35,-0.37c-0.17,-0.41 -0.08,-0.82 0.16,-1.02c-0.01,0.05 -0.12,1.05 0.69,1.43l0.13,0.06l-0.04,0.14c-0.01,0.04 -0.28,1.02 0.69,1.38l0.18,0.06l-0.08,0.17c-0.02,0.04 -0.4,0.92 0.5,1.42l1.95,0l0,-1.55c-0.69,-0.09 -0.99,-0.64 -1.06,-1.04c-0.32,-0.05 -0.57,-0.19 -0.74,-0.42c-0.41,-0.54 -0.06,-1.04 -0.06,-1.06c0,0 0,0.53 0.33,0.85c0.16,0.16 0.35,0.28 0.64,0.31l0.14,0.01l0.01,0.15c0,0.03 0.08,0.74 0.74,0.85l0,-3.17c0,-0.49 0.14,-0.98 0.32,-1.44l-3.96,0zm-5.25,1.45l-0.05,2.02l0.23,0.04l0.56,-1.94l-0.29,-0.59l-0.45,0.47zm1.21,7.48a0.11,0.11 0 0 1 -0.11,-0.13a0.11,0.11 0 0 1 0.13,-0.1c0.06,0 0.11,0.06 0.11,0.12a0.12,0.12 0 0 1 -0.13,0.11zm4.97,1.78c0.01,0 0.03,0.01 0.05,0.01c0.35,0.1 0.44,1.36 1.05,1.47c0.06,0.02 0.11,0.02 0.16,0.02c0.18,0 0.28,-0.08 0.4,-0.21c0,0 -0.31,-0.49 -0.54,-0.81c-0.3,-0.43 -0.54,-0.95 -1.11,-0.95c-0.01,0 -0.03,0 -0.05,0a0.57,0.57 0 0 0 -0.3,0.11a1.18,1.18 0 0 0 -0.64,-0.2c-0.35,0 -0.63,0.17 -0.77,0.17l0,0l-1.27,-0.13c-0.2,-0.02 -0.36,-0.22 -0.42,-0.3l-0.02,-0.03c0,-0.04 0,-0.07 0,-0.1c-0.04,-1.04 -0.85,-1.49 -1.13,-1.5c0,0 0.03,-0.2 -0.05,-0.27l-0.28,0.34l-0.92,-0.46l0.66,0.77l-0.56,0.62c-0.07,0.07 -0.06,0.17 -0.03,0.21l0.24,0.21l0.3,-0.18c0.02,-0.02 0.05,-0.02 0.08,-0.02c0.09,0 0.21,0.02 0.32,0.02c0.13,0 0.24,-0.02 0.25,-0.14c-0.04,0.39 -0.4,1.06 -0.16,1.58l0.17,0.4l-1.12,-0.16l-0.53,0.89c-0.16,0.29 -0.18,0.61 -0.03,0.79l0.2,0.25s0.27,-0.3 0.34,-0.49l-0.09,-0.1c-0.08,-0.08 -0.07,-0.16 -0.03,-0.24l0.33,-0.55l1.33,0.31l0.07,-0.12c0.09,-0.15 0.22,-0.19 0.36,-0.19c0.06,0 0.12,0 0.18,0.01c0.25,0.05 0.65,0.12 1.06,0.12c0.44,0 0.88,-0.08 1.12,-0.35c0.48,0.72 1.45,0.83 1.37,1.19l-0.25,1.23c0.17,-0.01 0.33,-0.02 0.49,-0.04l0.24,-1.28a7.29,7.29 0 0 0 0.05,-0.32c-0.09,-0.1 -0.32,-0.3 -0.45,-0.54c-0.17,-0.33 -0.08,-0.51 -0.24,-0.94c0,0 0.05,-0.1 0.17,-0.1z"
              fill="#FFFFFE" fill-rule="evenodd" id="svg_5"/>
        <path clip-rule="evenodd"
              d="m15.15,25.91s0.44,-0.18 0.48,-0.31l-0.06,-0.15c-0.04,-0.09 -0.03,-0.2 0.05,-0.25l0.47,-0.33l0.79,0.15s-0.14,-0.18 -0.13,-0.42l-0.75,-0.16l-0.72,0.44a0.69,0.69 0 0 0 -0.22,0.82l0.09,0.21zm5.61,2.07c0.14,0 0.3,-0.01 0.47,-0.01c0,0 0.41,-1.19 0.43,-1.23a9.96,9.96 0 0 1 -0.88,-0.47c0.12,0.18 0.41,0.39 0.35,0.55l-0.37,1.16z"
              fill="#FFFFFE" fill-rule="evenodd" id="svg_6"/>
        <path clip-rule="evenodd"
              d="m24.64,20.89l-11.27,0l0,4.25c0,1.74 1.25,2.83 3.11,2.83c1.54,0 1.95,0.06 2.53,0.63c0.39,-0.4 0.72,-0.54 1.4,-0.6l0.01,-0.06l0.36,-1.1c-0.02,-0.03 -0.6,-0.69 -0.6,-0.69c-0.23,0.08 -0.43,0.09 -0.75,0.09c-0.34,0 -0.72,-0.04 -1.12,-0.12a0.52,0.52 0 0 0 -0.12,-0.01c-0.05,0 -0.05,0 -0.07,0.03l-0.07,0.12l-0.13,0.21l-0.24,-0.06l-1.08,-0.25l-0.15,0.24l0.02,0.03l0.13,0.14l-0.06,0.2c-0.08,0.24 -0.33,0.53 -0.41,0.61l-0.27,0.29l-0.25,-0.31l-0.19,-0.23c-0.19,-0.22 -0.24,-0.56 -0.13,-0.91a0.02,0.02 0 0 1 -0.01,0.01l-0.3,0.13l-0.14,-0.3l-0.1,-0.22a1.03,1.03 0 0 1 0.35,-1.24l0.87,-0.49l0.83,0.16c0.02,-0.08 0.05,-0.37 0.07,-0.44c-0.02,0 -0.03,0 -0.05,0l-0.47,0.17l-0.46,-0.31s-0.18,-0.18 -0.02,-0.35l0.44,-0.68l-1.13,-1.42l1.74,0.71l0.12,-0.14l0.23,-0.28l0.27,0.25a0.51,0.51 0 0 1 0.14,0.26c0.47,0.18 1.33,0.73 1.41,1.63l-0.27,0.11l0,0c0.06,0.08 0.11,0.11 0.13,0.11l1.24,0.12c0.03,0 0.07,-0.02 0.11,-0.03c0.16,-0.05 0.39,-0.13 0.66,-0.13c0.23,0 0.44,0.05 0.65,0.15c0.08,-0.03 0.17,-0.05 0.28,-0.06l0.06,0c0.66,0 0.99,0.5 1.26,0.89c0.04,0.07 0.09,0.14 0.13,0.2c0.23,0.33 0.54,0.81 0.55,0.83l0.14,0.21l-0.17,0.2c-0.13,0.15 -0.33,0.32 -0.66,0.32a1.2,1.2 0 0 1 -0.22,-0.02a0.95,0.95 0 0 1 -0.2,-0.06a5.06,5.06 0 0 1 -0.03,0.21l-0.22,1.14c1.3,-0.32 2.12,-1.31 2.12,-2.72l0,-4.24l0,-0.01zm-11.27,-0.34l8.77,0c-0.44,-0.45 -0.43,-1.02 -0.32,-1.4a1.45,1.45 0 0 1 -0.33,-0.21c-0.34,0.25 -1.39,1.01 -1.66,1.2l-0.06,0.04l-3.44,-0.62l-0.07,0c-0.09,0 -0.21,0 -0.34,-0.02a0.33,0.33 0 0 1 -0.6,0.12a0.33,0.33 0 0 1 -0.06,-0.25l0.01,-0.08c-0.35,-0.25 -0.68,-0.81 -0.53,-1.4l0.01,-0.06l0.05,-0.03a1.94,1.94 0 0 1 0.16,-0.1l-0.25,-0.04a0.17,0.17 0 0 1 -0.14,-0.2c0.01,-0.09 0.1,-0.16 0.19,-0.14l0.6,0.1l0.05,-2.1l0.89,-0.94l0.55,1.16l-0.58,2.02l0.52,0.09a0.17,0.17 0 0 1 0.15,0.19a0.17,0.17 0 0 1 -0.17,0.15l-0.03,-0.01l-0.43,-0.07c0.01,0.02 0.02,0.03 0.02,0.04a0.47,0.47 0 0 0 0.21,0.19l2.62,0.04c0.11,-0.11 0.39,-0.38 0.67,-0.66a1.42,1.42 0 0 1 -0.92,-1.18c-0.36,-0.15 -0.61,-0.38 -0.75,-0.68c-0.17,-0.37 -0.11,-0.74 -0.06,-0.92c-0.35,-0.13 -0.72,-0.37 -1.09,-0.74l-3.96,0c0.17,0.46 0.32,0.95 0.32,1.44l0,5.07z"
              fill="#FFE52B" fill-rule="evenodd" id="svg_7"/>
        <path clip-rule="evenodd"
              d="m16.98,22.74a0.11,0.11 0 0 0 -0.12,0.11a0.11,0.11 0 0 0 0.1,0.12a0.12,0.12 0 0 0 0.13,-0.11a0.12,0.12 0 0 0 -0.11,-0.12zm5.22,8.91l-0.51,-1.42c0.61,-0.19 1.67,-0.59 2.14,-0.86l-0.32,1.04l1.07,0.35c-0.65,0.32 -1.43,0.63 -2.38,0.89zm-3.19,1.27c-1.24,0 -2.66,-0.28 -3.08,-0.43l0.64,-1.72c0.52,0.15 1.62,0.32 2.41,0.31l0.05,0c0.79,0.01 1.89,-0.16 2.42,-0.31l0.63,1.72c-0.42,0.15 -1.83,0.43 -3.07,0.43zm-5.58,-2.16l1.07,-0.35l-0.32,-1.04c0.47,0.27 1.53,0.67 2.14,0.86l-0.52,1.42c-0.94,-0.26 -1.73,-0.57 -2.37,-0.89zm11.2,-0.31l-0.65,-0.25l0.18,-0.68l0.2,-0.73s-1.15,0.63 -2.78,1.09c-0.46,0.14 -0.81,0.2 -0.81,0.2l0,0.5s-0.86,0.15 -1.74,0.15l-0.05,0c-0.88,0 -1.74,-0.15 -1.74,-0.15l0,-0.5s-0.35,-0.06 -0.81,-0.2c-1.62,-0.47 -2.77,-1.09 -2.77,-1.09l0.19,0.73l0.18,0.68l-0.65,0.25l-0.72,0.26c0.83,0.41 1.97,0.99 3.02,1.28l-0.24,0.67s1.33,0.61 3.55,0.62l0,0l0.03,0l0,0c2.22,-0.01 3.55,-0.62 3.55,-0.62l-0.25,-0.67c1.05,-0.29 2.2,-0.87 3.03,-1.28l-0.72,-0.26zm-8.34,-27.36l0.3,0.03l0.12,-0.27l0.38,-0.8l0.69,0.36l0.27,0.14l0.95,-0.95l0.75,0.74l0.21,0.21l0.27,-0.14l0.69,-0.36l0.38,0.8l0.12,0.27l0.3,-0.03l0.28,-0.03c-0.13,0.29 -0.23,0.56 -0.29,0.79c-0.75,-0.41 -1.72,-0.65 -2.71,-0.65c-0.98,0 -1.95,0.24 -2.7,0.65a6.83,6.83 0 0 0 -0.29,-0.79l0.28,0.03zm2.71,0.53c1.33,0 2.38,0.44 2.97,0.9c0,0 0.17,-1.04 0.76,-1.97l-1.06,0.12l-0.56,-1.18l-1.07,0.55l-1.04,-1.03l-1.03,1.03l-1.07,-0.55l-0.56,1.18l-1.06,-0.12c0.59,0.93 0.76,1.97 0.76,1.97c0.59,-0.47 1.64,-0.9 2.96,-0.9zm16.76,17.61s-0.46,0.8 -1.51,0.8l-0.02,0c-1.27,-0.01 -1.78,-0.78 -1.78,-0.78s0.08,1 -0.38,2.36c-0.55,1.64 0,2.81 0,2.81s-0.29,0.09 -0.63,0.09c-0.13,0 -0.27,-0.02 -0.4,-0.05c-1.06,-0.25 -1.32,-1.22 -1.32,-1.22s0.1,3.26 -3.7,3.26l-0.03,0s0.34,-0.45 0.43,-1.76c0.18,-2.42 1.82,-2.76 1.82,-2.76s-0.87,-0.11 -1.25,-0.45c-0.59,-0.53 -0.55,-1.15 -0.55,-1.15c1.33,-0.02 2.21,-0.48 2.88,-1.25a3.68,3.68 0 0 0 0.84,-1.74s-0.72,0.65 -2.11,0.65c-0.12,0 -0.25,0 -0.39,-0.02c-0.65,-0.05 -1.11,-0.47 -1.11,-0.47c1.45,-0.93 2.46,-2.55 1.56,-4.99c-0.72,-1.95 -2.45,-3.41 -4.19,-4.51c-0.58,-0.37 -0.91,-0.77 -0.91,-1.12c0,-0.82 1.16,-0.84 1.64,-1.39c0.55,-0.64 0.21,-1.67 -0.27,-2.3c0,0 0.16,-0.03 0.41,-0.03c0.5,0 1.37,0.13 2.09,0.87c0.94,0.98 0.55,2.05 0.55,2.05l0.25,0.05c0.16,0.03 0.31,0.04 0.46,0.05l0.11,0c1.37,0 1.99,-1.44 1.99,-1.44s1.46,1.8 -0.69,3.21c-0.37,0.24 -0.54,0.47 -0.49,0.71l0.03,0.15l0.15,0.03c1.56,0.43 2.36,1.51 3.32,2.73c1.47,1.87 3.54,1.93 3.8,1.93l0.02,0s-0.47,1.5 -1.86,1.5c-0.03,0 -0.05,0 -0.07,-0.01c-0.64,-0.02 -0.97,-0.26 -0.97,-0.26s-0.25,3.39 2.28,4.45zm-1.24,-3.73c1.71,0 2.28,-1.74 2.3,-1.81l0.19,-0.62l-0.64,0.02l0,0c-0.23,0 -2.11,-0.05 -3.45,-1.75l-0.13,-0.16c-0.87,-1.11 -1.7,-2.17 -3.18,-2.65a1.51,1.51 0 0 1 0.19,-0.14c0.78,-0.52 1.24,-1.15 1.35,-1.88c0.17,-1.1 -0.53,-1.98 -0.56,-2.01l-0.47,-0.59l-0.3,0.7c-0.02,0.04 -0.52,1.16 -1.57,1.16l-0.08,0c-0.07,0 -0.14,-0.01 -0.21,-0.01c0.04,-0.5 -0.06,-1.27 -0.76,-2c-0.84,-0.87 -1.87,-1 -2.41,-1c-0.29,0 -0.48,0.03 -0.5,0.03l-0.72,0.15l0.44,0.58c0.35,0.45 0.67,1.29 0.29,1.72c-0.12,0.14 -0.36,0.25 -0.6,0.37c-0.48,0.22 -1.14,0.53 -1.14,1.32c0,0.51 0.39,1.05 1.11,1.51c2.13,1.34 3.45,2.74 4.01,4.28c0.88,2.38 -0.26,3.73 -1.38,4.45l-0.49,0.32l0.43,0.4c0.06,0.05 0.59,0.52 1.38,0.59c0.15,0.01 0.3,0.02 0.43,0.02c0.51,0 0.94,-0.08 1.29,-0.19a3.29,3.29 0 0 1 -0.37,0.52c-0.63,0.74 -1.41,1.07 -2.54,1.09l-0.42,0.01l-0.03,0.42c0,0.08 -0.03,0.86 0.7,1.52c0.11,0.1 0.25,0.19 0.39,0.26c-0.5,0.45 -1,1.23 -1.1,2.57c-0.08,1.12 -0.35,1.54 -0.35,1.54l-0.47,0.71l0.84,0.01c1.38,0 2.43,-0.38 3.16,-1.14a3.59,3.59 0 0 0 0.83,-1.39a2.24,2.24 0 0 0 1.46,0.53c0.39,0 0.71,-0.08 0.75,-0.09l0.53,-0.14l-0.23,-0.5c-0.02,-0.04 -0.47,-1.04 0.01,-2.47c0.21,-0.61 0.31,-1.17 0.36,-1.6c0.34,0.18 0.79,0.32 1.37,0.32c1.32,0 1.9,-0.98 1.93,-1.02l0.26,-0.46l-0.48,-0.2c-1.58,-0.65 -1.92,-2.41 -1.99,-3.35c0.14,0.02 0.3,0.05 0.48,0.05l0.08,0l0.01,0z"
              fill="#1A1919" fill-rule="evenodd" id="svg_8"/>
        <path clip-rule="evenodd"
              d="m32.59,10.05c0.32,0 0.69,0.11 1.04,0.47c1.11,1.12 2.13,1.19 2.13,1.19c-0.18,0.41 -0.72,0.77 -1.28,0.77c-0.13,0 -0.26,-0.02 -0.39,-0.06c-0.76,-0.26 -1.03,-1.4 -2.36,-2.11c0,0 0.37,-0.26 0.86,-0.26zm-1.08,0.67c0.64,0.34 1.01,0.79 1.34,1.2c0.32,0.39 0.62,0.77 1.1,0.93c0.16,0.06 0.34,0.09 0.53,0.09c0.71,0 1.43,-0.44 1.7,-1.05l0.27,-0.6l-0.66,-0.04c-0.03,0 -0.88,-0.08 -1.83,-1.05c-0.39,-0.4 -0.86,-0.61 -1.37,-0.61c-0.62,0 -1.08,0.31 -1.13,0.35l-0.6,0.42l0.65,0.36zm0.3,6.05l0,0.02c-0.38,-3.1 -2.63,-5.34 -5.14,-6.7c-0.23,-0.13 -0.44,-0.23 -0.65,-0.33c0.76,0.11 1.99,0.13 2.94,-0.69c0,0 -1.45,1.06 -4.42,0.09c0.82,0.54 2.42,1.29 3.88,2.51c3.64,3.21 1.03,6.34 1.03,6.34c1.31,-1.37 1.37,-2.84 0.98,-4.04c0.69,1.15 1.13,2.55 1.06,4.27c-0.1,2.46 -1.45,4.6 -2.87,6.31c-0.69,0.83 -0.84,1.85 -0.84,1.85s0.28,-0.9 1.07,-1.83c1.52,-1.79 2.83,-3.64 3,-6.32c0.16,0.49 0.81,1.84 1.84,2.34c0,0 -1.3,-0.78 -1.88,-3.82zm-19.82,11.73c-3.8,0 -3.7,-3.26 -3.7,-3.26s-0.27,0.97 -1.32,1.22a1.56,1.56 0 0 1 -0.4,0.05c-0.34,0 -0.63,-0.08 -0.63,-0.08s0.55,-1.18 0,-2.81c-0.46,-1.36 -0.38,-2.37 -0.38,-2.37s-0.51,0.77 -1.78,0.78l-0.02,0c-1.05,0 -1.51,-0.8 -1.51,-0.8c2.53,-1.06 2.28,-4.45 2.28,-4.45s-0.33,0.24 -0.97,0.27l-0.07,0c-1.39,0 -1.87,-1.5 -1.87,-1.5l0.03,0c0.26,0 2.33,-0.06 3.8,-1.93c0.96,-1.22 1.75,-2.3 3.31,-2.73l0.16,-0.02l0.03,-0.16c0.05,-0.24 -0.12,-0.46 -0.49,-0.71c-2.15,-1.41 -0.69,-3.21 -0.69,-3.21s0.61,1.44 1.99,1.44l0.1,0c0.16,-0.01 0.31,-0.02 0.46,-0.05l0.26,-0.05s-0.4,-1.07 0.55,-2.05c0.72,-0.74 1.59,-0.87 2.09,-0.87c0.25,0 0.41,0.03 0.41,0.03c-0.48,0.63 -0.82,1.66 -0.27,2.3c0.48,0.55 1.63,0.58 1.63,1.39c0,0.35 -0.32,0.75 -0.9,1.12c-1.74,1.1 -3.47,2.56 -4.19,4.51c-0.9,2.44 0.11,4.06 1.56,4.99c0,0 -0.46,0.42 -1.11,0.47a4.12,4.12 0 0 1 -0.39,0.02c-1.39,0 -2.11,-0.65 -2.11,-0.65s0.12,0.9 0.84,1.74c0.67,0.77 1.55,1.23 2.88,1.25c0,0 0.04,0.62 -0.55,1.15c-0.38,0.34 -1.25,0.45 -1.25,0.45s1.64,0.34 1.82,2.76c0.1,1.31 0.43,1.76 0.43,1.76l-0.03,0zm0.4,-0.26c0,0 -0.26,-0.42 -0.35,-1.54c-0.1,-1.34 -0.6,-2.12 -1.11,-2.57c0.15,-0.07 0.28,-0.16 0.4,-0.26c0.73,-0.66 0.7,-1.44 0.7,-1.52l-0.03,-0.42l-0.42,-0.01c-1.13,-0.02 -1.91,-0.35 -2.54,-1.09a3.42,3.42 0 0 1 -0.37,-0.52c0.35,0.11 0.78,0.19 1.29,0.19c0.13,0 0.27,-0.01 0.42,-0.02a2.51,2.51 0 0 0 1.39,-0.59l0.43,-0.4l-0.49,-0.32c-1.12,-0.72 -2.26,-2.07 -1.38,-4.45c0.56,-1.54 1.87,-2.94 4.01,-4.28c0.72,-0.46 1.11,-1 1.11,-1.51c0,-0.79 -0.66,-1.1 -1.14,-1.32c-0.24,-0.12 -0.49,-0.23 -0.6,-0.37c-0.38,-0.43 -0.06,-1.27 0.28,-1.72l0.45,-0.58l-0.72,-0.15c-0.02,0 -0.21,-0.03 -0.5,-0.03c-0.54,0 -1.57,0.13 -2.41,1c-0.7,0.73 -0.8,1.5 -0.76,2c-0.07,0 -0.14,0.01 -0.21,0.01l-0.07,0c-1.06,0 -1.56,-1.12 -1.58,-1.16l-0.29,-0.7l-0.48,0.59c-0.03,0.03 -0.73,0.91 -0.56,2.01c0.11,0.73 0.57,1.36 1.35,1.88c0.09,0.05 0.15,0.1 0.19,0.14c-1.48,0.48 -2.31,1.54 -3.18,2.65l-0.13,0.16c-1.33,1.7 -3.23,1.75 -3.45,1.75l-0.65,-0.02l0.2,0.62c0.02,0.07 0.59,1.82 2.3,1.82l0.09,-0.01c0.18,0 0.34,-0.03 0.48,-0.06c-0.07,0.95 -0.42,2.71 -1.99,3.36l-0.48,0.2l0.26,0.46c0.03,0.04 0.61,1.02 1.93,1.02a2.93,2.93 0 0 0 1.36,-0.32c0.06,0.43 0.16,0.99 0.37,1.6c0.47,1.43 0.03,2.43 0.01,2.47l-0.23,0.5l0.53,0.14c0.04,0.01 0.36,0.09 0.75,0.09a2.23,2.23 0 0 0 1.46,-0.54c0.14,0.45 0.39,0.96 0.82,1.4c0.74,0.76 1.79,1.14 3.17,1.14l0.84,-0.01l-0.47,-0.71z"
              fill="#1A1919" fill-rule="evenodd" id="svg_9"/>
        <path clip-rule="evenodd"
              d="m4.37,10.52c0.36,-0.36 0.73,-0.47 1.05,-0.47c0.49,0 0.86,0.26 0.86,0.26c-1.33,0.71 -1.6,1.85 -2.36,2.11a1.14,1.14 0 0 1 -0.39,0.06c-0.56,0 -1.1,-0.36 -1.28,-0.77c0,0 1.02,-0.07 2.12,-1.19zm-0.84,2.42c0.19,0 0.36,-0.03 0.53,-0.09c0.48,-0.16 0.78,-0.54 1.1,-0.93c0.33,-0.41 0.7,-0.86 1.34,-1.2l0.65,-0.36l-0.61,-0.43c-0.05,-0.03 -0.5,-0.34 -1.12,-0.34c-0.51,0 -0.98,0.21 -1.37,0.61c-0.95,0.97 -1.8,1.05 -1.83,1.05l-0.66,0.04l0.27,0.6c0.27,0.61 0.99,1.05 1.7,1.05zm2.99,5.3c-0.07,-1.72 0.37,-3.12 1.06,-4.27c-0.39,1.2 -0.34,2.67 0.98,4.04c0,0 -2.61,-3.13 1.03,-6.34c1.46,-1.22 3.06,-1.97 3.88,-2.51c-2.97,0.97 -4.42,-0.1 -4.42,-0.1c0.95,0.83 2.18,0.81 2.94,0.69c-0.21,0.11 -0.43,0.21 -0.66,0.34c-2.5,1.36 -4.75,3.6 -5.13,6.7l0,-0.02c-0.58,3.04 -1.88,3.82 -1.88,3.82c1.03,-0.51 1.68,-1.86 1.84,-2.34c0.17,2.68 1.48,4.53 3,6.32c0.79,0.93 1.07,1.83 1.07,1.83s-0.15,-1.02 -0.84,-1.85c-1.42,-1.71 -2.77,-3.85 -2.87,-6.31zm11.63,-6.28l0,0.62c0.21,-0.26 0.62,-0.21 0.62,-0.21l0,0.89s-0.02,0.44 -0.17,0.62l0.88,0c-0.15,-0.18 -0.16,-0.62 -0.16,-0.62l0,-0.89s0.41,-0.05 0.62,0.21l0,-0.62l-1.79,0zm-0.38,-3.65c0.28,0.23 0.44,0.27 0.45,0.27l0.11,0.05l0,-0.58l-1.04,-0.44s0.01,0.34 0.48,0.7zm2.47,0c0.47,-0.36 0.48,-0.7 0.48,-0.7l-1.04,0.44l0,0.58l0.11,-0.05c0,0 0.17,-0.04 0.45,-0.27z"
              fill="#1A1919" fill-rule="evenodd" id="svg_10"/>
        <path clip-rule="evenodd"
              d="m19,6.77l-2.5,-0.99c0.21,-0.51 1.19,-0.94 2.5,-0.94c1.32,0 2.3,0.43 2.51,0.94l-2.51,0.99zm1.87,3.11l-1.68,0.89l0,-3.6l2.29,-0.78l-0.61,3.49zm1.05,0.96l0.77,0.45l0.01,0l0.19,0.11c-0.43,0.12 -0.77,0.34 -1.05,0.62l-0.03,0.03a3.73,3.73 0 0 0 -0.18,0.22l-0.04,0.05c-0.06,0.07 -0.12,0.15 -0.17,0.23l-0.03,0.05a5.6,5.6 0 0 0 -0.18,0.3c-0.55,0.95 -1.43,1.51 -2.21,1.51c-0.77,0 -1.65,-0.56 -2.2,-1.51a6.36,6.36 0 0 0 -0.18,-0.3l-0.04,-0.05a6.13,6.13 0 0 0 -0.16,-0.23c-0.01,-0.02 -0.03,-0.04 -0.04,-0.05a4.39,4.39 0 0 0 -0.18,-0.22c-0.02,-0.01 -0.02,-0.02 -0.04,-0.03a2.27,2.27 0 0 0 -1.04,-0.62l0.19,-0.11l0.01,0l0.77,-0.45l0.79,-0.46l2.12,1.16l0,-0.01l0.01,0.01l2.12,-1.16l0.79,0.46zm3.04,3.2c-0.18,0.46 -0.32,0.95 -0.32,1.44l0,3.17c-0.66,-0.11 -0.74,-0.82 -0.74,-0.85l-0.01,-0.15l-0.14,-0.01a1.01,1.01 0 0 1 -0.64,-0.31c-0.33,-0.32 -0.33,-0.85 -0.33,-0.85c0,0.02 -0.35,0.52 0.05,1.06c0.18,0.23 0.43,0.37 0.75,0.42c0.07,0.4 0.37,0.96 1.06,1.04l0,1.55l-1.95,0c-0.9,-0.5 -0.52,-1.38 -0.5,-1.42l0.08,-0.17l-0.18,-0.06c-0.97,-0.36 -0.7,-1.34 -0.69,-1.38l0.04,-0.14l-0.13,-0.06c-0.81,-0.38 -0.7,-1.38 -0.69,-1.43c-0.24,0.2 -0.33,0.61 -0.16,1.02c-0.1,0.1 -0.22,0.23 -0.35,0.37a1.09,1.09 0 0 1 -0.86,-1.02l-0.01,-0.11l-0.11,-0.05c-0.32,-0.12 -0.54,-0.3 -0.65,-0.54c-0.13,-0.27 -0.08,-0.55 -0.05,-0.69a2.88,2.88 0 0 0 0.57,0.06l0.01,0c0.1,0 0.19,0 0.29,-0.01c0.52,-0.05 1.1,-0.28 1.7,-0.88l3.96,0zm-2.44,13.82l0.22,-1.14l0.03,-0.21a1.21,1.21 0 0 0 0.42,0.08c0.34,0 0.53,-0.17 0.66,-0.32l0.17,-0.2l-0.14,-0.21c-0.01,-0.02 -0.32,-0.5 -0.55,-0.83a4.46,4.46 0 0 1 -0.13,-0.2c-0.27,-0.39 -0.6,-0.89 -1.26,-0.89l-0.06,0a0.97,0.97 0 0 0 -0.28,0.06a1.51,1.51 0 0 0 -0.65,-0.15a2.01,2.01 0 0 0 -0.66,0.13c-0.04,0.01 -0.08,0.02 -0.11,0.03l-1.24,-0.12c-0.02,-0.01 -0.07,-0.03 -0.13,-0.11l0,0l0.27,-0.11c-0.08,-0.9 -0.93,-1.45 -1.41,-1.64a0.51,0.51 0 0 0 -0.14,-0.25l-0.27,-0.25l-0.23,0.28l-0.12,0.14l-1.74,-0.71l1.13,1.42l-0.44,0.68c-0.16,0.17 0.02,0.35 0.02,0.35l0.46,0.31l0.47,-0.18c0.02,0 0.03,0.01 0.05,0.01c-0.02,0.07 -0.05,0.36 -0.07,0.44l-0.83,-0.17l-0.87,0.5c-0.45,0.33 -0.51,0.87 -0.34,1.24l0.09,0.22l0.14,0.3l0.3,-0.13c0.01,0 0.01,0 0.02,-0.01c-0.11,0.35 -0.07,0.69 0.13,0.91l0.18,0.23l0.25,0.31l0.27,-0.29c0.08,-0.08 0.34,-0.37 0.41,-0.62l0.06,-0.19l-0.13,-0.14l-0.02,-0.03l0.15,-0.24l1.08,0.25l0.24,0.06l0.13,-0.22l0.07,-0.11c0.02,-0.03 0.02,-0.03 0.07,-0.03c0.04,0 0.08,0 0.12,0.01a6.09,6.09 0 0 0 1.12,0.12c0.32,0 0.52,-0.01 0.75,-0.09c0,0 0.58,0.66 0.6,0.69l-0.36,1.1l-0.02,0.06c-0.67,0.06 -1,0.2 -1.39,0.6c-0.58,-0.57 -0.99,-0.63 -2.53,-0.63c-1.86,0 -3.11,-1.09 -3.11,-2.83l0,-4.25l11.27,0l0.01,4.25c0,1.41 -0.83,2.39 -2.13,2.72zm-6.95,-2.41l0.06,0.15c-0.04,0.13 -0.48,0.31 -0.48,0.31l-0.09,-0.21a0.69,0.69 0 0 1 0.23,-0.82l0.71,-0.44l0.76,0.16c-0.02,0.24 0.13,0.42 0.13,0.42l-0.8,-0.15l-0.47,0.33c-0.08,0.05 -0.09,0.16 -0.05,0.25zm6.83,1.2l-0.24,1.28c-0.16,0.02 -0.32,0.03 -0.49,0.03l0.25,-1.21c0.08,-0.37 -0.89,-0.48 -1.37,-1.2c-0.24,0.27 -0.68,0.35 -1.12,0.35c-0.41,0 -0.81,-0.07 -1.06,-0.12a1.16,1.16 0 0 0 -0.18,-0.01c-0.14,0 -0.27,0.04 -0.36,0.19l-0.07,0.12l-1.33,-0.31l-0.33,0.55c-0.04,0.09 -0.05,0.16 0.03,0.24l0.09,0.1c-0.06,0.19 -0.34,0.49 -0.34,0.49l-0.2,-0.25c-0.15,-0.17 -0.13,-0.49 0.03,-0.79l0.53,-0.89l1.12,0.16l-0.17,-0.4c-0.24,-0.52 0.12,-1.19 0.16,-1.58c-0.01,0.12 -0.12,0.14 -0.24,0.14c-0.12,0 -0.24,-0.02 -0.33,-0.02c-0.03,0 -0.06,0.01 -0.07,0.02l-0.31,0.18l-0.24,-0.21c-0.03,-0.04 -0.04,-0.14 0.03,-0.21l0.56,-0.62l-0.66,-0.77l0.92,0.46l0.28,-0.34c0.08,0.08 0.05,0.27 0.05,0.27c0.28,0.01 1.09,0.46 1.13,1.5c0,0.03 0,0.06 0,0.1l0.02,0.03c0.06,0.08 0.22,0.28 0.42,0.3l1.27,0.13l0,0c0.14,0 0.42,-0.17 0.77,-0.17c0.2,0 0.41,0.05 0.64,0.2c0,0 0.12,-0.1 0.31,-0.11c0.01,0 0.03,0 0.04,0c0.57,0 0.81,0.52 1.11,0.95c0.23,0.32 0.54,0.81 0.54,0.81c-0.11,0.13 -0.22,0.21 -0.4,0.21a0.82,0.82 0 0 1 -0.16,-0.02c-0.61,-0.11 -0.7,-1.37 -1.05,-1.47a0.21,0.21 0 0 0 -0.05,-0.01c-0.12,0 -0.16,0.11 -0.16,0.11c0.16,0.42 0.06,0.6 0.23,0.93c0.13,0.24 0.36,0.44 0.45,0.54c0,0 -0.02,0.19 -0.05,0.33l0,-0.01zm-1.17,1.32c-0.17,0 -0.33,0.01 -0.47,0.01l0.37,-1.16c0.06,-0.16 -0.23,-0.37 -0.35,-0.55c0.18,0.12 0.65,0.37 0.88,0.47a60.77,60.77 0 0 0 -0.43,1.23zm-5.53,-10.46l0.05,-2.02l0.45,-0.47l0.29,0.59l-0.56,1.94l-0.23,-0.04zm0.32,0.63a0.8,0.8 0 0 0 0.3,0.32a3.7,3.7 0 0 1 -0.05,0.57c-0.01,0.04 -0.02,0.08 -0.04,0.12c0,0.03 -0.01,0.05 -0.01,0.07c-0.14,0 -0.41,-0.02 -0.63,-0.1c-0.25,-0.09 -0.62,-0.54 -0.53,-1.04c0.1,-0.07 0.35,-0.2 0.58,-0.2c0.18,0 0.3,0.08 0.38,0.26zm5.24,0.54c-0.35,0.26 -1.24,0.91 -1.57,1.14l-3.13,-0.56l0.02,-0.09c0.04,-0.16 0.09,-0.38 0.09,-0.64l2.63,0.04l0.05,-0.05c0.04,-0.04 0.87,-0.85 1.3,-1.31c0.1,0.13 0.22,0.25 0.39,0.35c-0.06,0.31 -0.03,0.75 0.22,1.12zm-4.25,-4.64c0.37,0.38 0.74,0.61 1.09,0.74c-0.05,0.18 -0.1,0.55 0.06,0.92c0.14,0.3 0.39,0.53 0.75,0.69c0.04,0.37 0.27,0.92 0.92,1.17c-0.28,0.28 -0.56,0.55 -0.67,0.66l-2.62,-0.04a0.47,0.47 0 0 1 -0.21,-0.19c0,-0.01 -0.01,-0.02 -0.02,-0.03l0.43,0.07l0.03,0a0.17,0.17 0 0 0 0.17,-0.15a0.17,0.17 0 0 0 -0.14,-0.19l-0.53,-0.09l0.58,-2.02l-0.55,-1.16l-0.89,0.94l-0.05,2.1l-0.6,-0.1c-0.09,-0.02 -0.18,0.05 -0.2,0.14a0.17,0.17 0 0 0 0.15,0.2l0.25,0.04c-0.09,0.05 -0.15,0.09 -0.16,0.1l-0.05,0.03l-0.01,0.06c-0.15,0.59 0.18,1.15 0.54,1.4l-0.02,0.08c-0.01,0.09 0.01,0.18 0.06,0.25a0.33,0.33 0 0 0 0.28,0.14a0.34,0.34 0 0 0 0.32,-0.26c0.13,0.02 0.26,0.02 0.34,0.02l0.07,0l3.44,0.62l0.06,-0.03c0.27,-0.2 1.32,-0.96 1.66,-1.21c0.1,0.08 0.2,0.15 0.33,0.21c-0.11,0.38 -0.12,0.95 0.32,1.4l-8.77,0l0,-5.07c0,-0.49 -0.15,-0.98 -0.32,-1.44l3.96,0zm-0.48,-7.65l2.29,0.78l0,3.6l-1.68,-0.89l-0.61,-3.49zm5.59,-0.43c0,-0.88 -1.48,-1.67 -3.11,-1.67l-0.01,0c-1.63,0 -3.11,0.79 -3.11,1.67l0.03,0.21l0.66,3.75l-0.66,0.38l-1.69,0.99l0.01,0s-0.38,0.19 -0.56,0.31c-0.64,0.45 -0.78,1.1 -0.41,1.37c0.1,-0.53 0.52,-1.09 1.3,-1.09c0.57,0 1,0.3 1.35,0.74c0.09,0.11 0.18,0.23 0.26,0.35c0.1,0.16 0.19,0.31 0.29,0.44l-4.36,0c0.32,0.65 0.63,1.33 0.63,2.07l0,9.66c0,2.34 1.79,3.46 3.74,3.46c1.5,0 1.7,-0.07 2.53,0.76c0.82,-0.83 1.02,-0.76 2.53,-0.76c1.94,0 3.73,-1.12 3.73,-3.46l0,-9.66c0,-0.74 0.3,-1.42 0.63,-2.07l-4.36,0c0.09,-0.13 0.19,-0.28 0.29,-0.44c0.08,-0.12 0.17,-0.24 0.25,-0.35c0.36,-0.44 0.79,-0.74 1.36,-0.74c0.78,0 1.2,0.56 1.3,1.09c0.37,-0.27 0.24,-0.92 -0.41,-1.37c-0.18,-0.12 -0.56,-0.31 -0.56,-0.31l0.01,0l-1.7,-0.99l-0.65,-0.38l0.65,-3.75l0.04,-0.21z"
              fill="#1A1919" fill-rule="evenodd" id="svg_11"/>
        <path d="m50.12,22.06l3,0l0,-6.98l4.12,0l0,-2.54l-11.24,0l0,2.54l4.12,0l0,6.98zm16.22,-9.52l-5,5.54l0,-5.54l-2.9,0l0,9.52l2.56,0l5,-5.54l0,5.54l2.9,0l0,-9.52l-2.56,0zm7.66,5.98l4.66,0l0,3.54l2.9,0l0,-9.52l-2.9,0l0,3.48l-4.66,0l0,-3.48l-2.9,0l0,9.52l2.9,0l0,-3.54zm15.63,3.54c0.66,0 1.26,-0.06 1.82,-0.22c1.5,-0.42 2.48,-1.64 2.48,-3.3c0,-1.58 -0.84,-2.68 -2.18,-3.18c-0.64,-0.24 -1.4,-0.26 -2.12,-0.26l-2.98,0l0,-2.56l-2.9,0l0,9.52l5.88,0zm-2.98,-4.72l2.48,0c0.4,0 0.78,0 1.12,0.12c0.48,0.16 0.76,0.56 0.76,1.04c0,0.5 -0.28,0.92 -0.74,1.12c-0.32,0.14 -0.64,0.14 -1.14,0.14l-2.48,0l0,-2.42zm11.68,1.12l0.8,0l3.46,3.6l3.86,0l-4.82,-4.96l4.64,-4.56l-3.64,0l-3.5,3.58l-0.8,0l0,-3.58l-2.9,0l0,9.52l2.9,0l0,-3.6z"
              fill="#000" id="svg_12"/>
        <text fill="#000000" font-family="Cursive" font-size="24" font-weight="bold" id="svg_15" stroke-width="0"
              text-anchor="middle" transform="matrix(0.627739 0 0 0.627012 41.261 3.48063)" x="138.81"
              xml:space="preserve" y="29.15">Блог</text>
    </g>
</svg>